<mxfile host="app.diagrams.net" agent="Mozilla/5.0 (Windows NT 10.0; Win64; x64) AppleWebKit/537.36 (KHTML, like Gecko) Chrome/130.0.0.0 Safari/537.36" version="24.8.4" pages="2">
  <diagram id="C5RBs43oDa-KdzZeNtuy" name="IDEF уровень А0">
    <mxGraphModel dx="2074" dy="1140" grid="1" gridSize="10" guides="1" tooltips="1" connect="1" arrows="1" fold="1" page="1" pageScale="1" pageWidth="827" pageHeight="1169" math="0" shadow="0">
      <root>
        <mxCell id="WIyWlLk6GJQsqaUBKTNV-0" />
        <mxCell id="WIyWlLk6GJQsqaUBKTNV-1" parent="WIyWlLk6GJQsqaUBKTNV-0" />
        <mxCell id="3vzP17PmA2K4EGFiLjuO-1" style="edgeStyle=orthogonalEdgeStyle;rounded=0;orthogonalLoop=1;jettySize=auto;html=1;" parent="WIyWlLk6GJQsqaUBKTNV-1" edge="1">
          <mxGeometry relative="1" as="geometry">
            <mxPoint x="300" y="480" as="targetPoint" />
            <mxPoint x="300" y="280" as="sourcePoint" />
            <Array as="points">
              <mxPoint x="300" y="390" />
              <mxPoint x="300" y="390" />
            </Array>
          </mxGeometry>
        </mxCell>
        <mxCell id="3vzP17PmA2K4EGFiLjuO-0" value="Зашифровать и дешифровать шифр Виженера" style="swimlane;startSize=0;fontSize=14;verticalAlign=top;whiteSpace=wrap;labelPosition=center;verticalLabelPosition=middle;align=center;" parent="WIyWlLk6GJQsqaUBKTNV-1" vertex="1">
          <mxGeometry x="270" y="480" width="300" height="200" as="geometry" />
        </mxCell>
        <mxCell id="3vzP17PmA2K4EGFiLjuO-2" value="" style="endArrow=classic;html=1;rounded=0;" parent="WIyWlLk6GJQsqaUBKTNV-1" edge="1">
          <mxGeometry width="50" height="50" relative="1" as="geometry">
            <mxPoint x="460.34000000000003" y="280" as="sourcePoint" />
            <mxPoint x="460" y="480" as="targetPoint" />
            <Array as="points">
              <mxPoint x="460" y="390" />
            </Array>
          </mxGeometry>
        </mxCell>
        <mxCell id="3vzP17PmA2K4EGFiLjuO-7" value="Таблица&lt;div&gt;Виженера&lt;/div&gt;" style="text;html=1;align=center;verticalAlign=middle;resizable=0;points=[];autosize=1;strokeColor=none;fillColor=none;" parent="WIyWlLk6GJQsqaUBKTNV-1" vertex="1">
          <mxGeometry x="300" y="283" width="80" height="40" as="geometry" />
        </mxCell>
        <mxCell id="3vzP17PmA2K4EGFiLjuO-8" value="Знания о&lt;div&gt;шифре Виженера&amp;nbsp;&lt;/div&gt;" style="text;html=1;align=center;verticalAlign=middle;resizable=0;points=[];autosize=1;strokeColor=none;fillColor=none;" parent="WIyWlLk6GJQsqaUBKTNV-1" vertex="1">
          <mxGeometry x="460" y="283" width="130" height="40" as="geometry" />
        </mxCell>
        <mxCell id="3vzP17PmA2K4EGFiLjuO-9" value="" style="endArrow=classic;html=1;rounded=0;" parent="WIyWlLk6GJQsqaUBKTNV-1" edge="1">
          <mxGeometry width="50" height="50" relative="1" as="geometry">
            <mxPoint x="10" y="510" as="sourcePoint" />
            <mxPoint x="270" y="510" as="targetPoint" />
          </mxGeometry>
        </mxCell>
        <mxCell id="3vzP17PmA2K4EGFiLjuO-10" value="" style="endArrow=classic;html=1;rounded=0;" parent="WIyWlLk6GJQsqaUBKTNV-1" edge="1">
          <mxGeometry width="50" height="50" relative="1" as="geometry">
            <mxPoint x="10" y="600" as="sourcePoint" />
            <mxPoint x="270" y="600" as="targetPoint" />
          </mxGeometry>
        </mxCell>
        <mxCell id="3vzP17PmA2K4EGFiLjuO-14" value="Слово/фраза для шифрования" style="text;html=1;align=center;verticalAlign=middle;resizable=0;points=[];autosize=1;strokeColor=none;fillColor=none;" parent="WIyWlLk6GJQsqaUBKTNV-1" vertex="1">
          <mxGeometry x="30" y="480" width="200" height="30" as="geometry" />
        </mxCell>
        <mxCell id="3vzP17PmA2K4EGFiLjuO-15" value="Ключ для шифрования" style="text;html=1;align=center;verticalAlign=middle;resizable=0;points=[];autosize=1;strokeColor=none;fillColor=none;" parent="WIyWlLk6GJQsqaUBKTNV-1" vertex="1">
          <mxGeometry x="65" y="560" width="150" height="30" as="geometry" />
        </mxCell>
        <mxCell id="3vzP17PmA2K4EGFiLjuO-16" value="" style="endArrow=classic;html=1;rounded=0;" parent="WIyWlLk6GJQsqaUBKTNV-1" edge="1">
          <mxGeometry width="50" height="50" relative="1" as="geometry">
            <mxPoint x="290" y="840" as="sourcePoint" />
            <mxPoint x="290" y="680" as="targetPoint" />
          </mxGeometry>
        </mxCell>
        <mxCell id="3vzP17PmA2K4EGFiLjuO-17" value="" style="endArrow=classic;html=1;rounded=0;" parent="WIyWlLk6GJQsqaUBKTNV-1" edge="1">
          <mxGeometry width="50" height="50" relative="1" as="geometry">
            <mxPoint x="450" y="840" as="sourcePoint" />
            <mxPoint x="450" y="680" as="targetPoint" />
          </mxGeometry>
        </mxCell>
        <mxCell id="3vzP17PmA2K4EGFiLjuO-22" value="Отправитель" style="text;html=1;align=center;verticalAlign=middle;resizable=0;points=[];autosize=1;strokeColor=none;fillColor=none;" parent="WIyWlLk6GJQsqaUBKTNV-1" vertex="1">
          <mxGeometry x="280" y="700" width="100" height="30" as="geometry" />
        </mxCell>
        <mxCell id="3vzP17PmA2K4EGFiLjuO-23" value="Получатель" style="text;html=1;align=center;verticalAlign=middle;resizable=0;points=[];autosize=1;strokeColor=none;fillColor=none;" parent="WIyWlLk6GJQsqaUBKTNV-1" vertex="1">
          <mxGeometry x="450" y="700" width="90" height="30" as="geometry" />
        </mxCell>
        <mxCell id="2u-vAV41J2oB2rSCHhei-0" value="" style="endArrow=classic;html=1;rounded=0;" parent="WIyWlLk6GJQsqaUBKTNV-1" edge="1">
          <mxGeometry width="50" height="50" relative="1" as="geometry">
            <mxPoint x="570" y="579.66" as="sourcePoint" />
            <mxPoint x="810" y="580" as="targetPoint" />
          </mxGeometry>
        </mxCell>
        <mxCell id="2u-vAV41J2oB2rSCHhei-1" value="Успешно расшифрованное&lt;div&gt;слово/фраза&lt;/div&gt;" style="text;html=1;align=center;verticalAlign=middle;resizable=0;points=[];autosize=1;strokeColor=none;fillColor=none;" parent="WIyWlLk6GJQsqaUBKTNV-1" vertex="1">
          <mxGeometry x="610" y="540" width="170" height="40" as="geometry" />
        </mxCell>
      </root>
    </mxGraphModel>
  </diagram>
  <diagram id="mHoZJG-j8WEezvr3IRrq" name="IDEF уровень А1">
    <mxGraphModel dx="2074" dy="1140" grid="1" gridSize="10" guides="1" tooltips="1" connect="1" arrows="1" fold="1" page="1" pageScale="1" pageWidth="827" pageHeight="1169" math="0" shadow="0">
      <root>
        <mxCell id="0" />
        <mxCell id="1" parent="0" />
        <mxCell id="R7urHZ6gKuWOEgTduB0l-1" value="" style="endArrow=classic;html=1;rounded=0;entryX=-0.003;entryY=0.383;entryDx=0;entryDy=0;entryPerimeter=0;" parent="1" edge="1">
          <mxGeometry width="50" height="50" relative="1" as="geometry">
            <mxPoint x="12.73" y="240" as="sourcePoint" />
            <mxPoint x="99.6099999999999" y="239.7900000000002" as="targetPoint" />
          </mxGeometry>
        </mxCell>
        <mxCell id="R7urHZ6gKuWOEgTduB0l-2" value="" style="endArrow=classic;html=1;rounded=0;entryX=-0.003;entryY=0.383;entryDx=0;entryDy=0;entryPerimeter=0;" parent="1" edge="1">
          <mxGeometry width="50" height="50" relative="1" as="geometry">
            <mxPoint x="12.73" y="290" as="sourcePoint" />
            <mxPoint x="100" y="290" as="targetPoint" />
          </mxGeometry>
        </mxCell>
        <mxCell id="SypogzJMCspnKlEwU4q5-1" value="слово/фраза" style="text;html=1;align=center;verticalAlign=middle;resizable=0;points=[];autosize=1;strokeColor=none;fillColor=none;" parent="1" vertex="1">
          <mxGeometry x="5" y="208" width="90" height="30" as="geometry" />
        </mxCell>
        <mxCell id="SypogzJMCspnKlEwU4q5-2" value="ключ для&amp;nbsp;&lt;div&gt;шифрования&lt;/div&gt;" style="text;html=1;align=center;verticalAlign=middle;resizable=0;points=[];autosize=1;strokeColor=none;fillColor=none;" parent="1" vertex="1">
          <mxGeometry x="5" y="250" width="100" height="40" as="geometry" />
        </mxCell>
        <mxCell id="SypogzJMCspnKlEwU4q5-3" value="Зашифровать&#xa; слово/фразу обратимым &#xa;преобразованием" style="swimlane;startSize=0;verticalAlign=top;whiteSpace=wrap;" parent="1" vertex="1">
          <mxGeometry x="100" y="190" width="150" height="140" as="geometry" />
        </mxCell>
        <mxCell id="WIR_NCdY2v-yMR42KCiM-1" value="Тайно передать &#xa;шифр &#xa;получателю" style="swimlane;startSize=0;verticalAlign=top;" parent="1" vertex="1">
          <mxGeometry x="290" y="350" width="150" height="155" as="geometry" />
        </mxCell>
        <mxCell id="WIR_NCdY2v-yMR42KCiM-4" value="Дешифровать &#xa;слово/фразу &#xa;обратным&#xa; преобразованием&#xa;&#xa;" style="swimlane;startSize=0;verticalAlign=top;" parent="1" vertex="1">
          <mxGeometry x="470" y="530" width="140" height="160" as="geometry" />
        </mxCell>
        <mxCell id="WIR_NCdY2v-yMR42KCiM-13" value="" style="endArrow=classic;html=1;rounded=0;entryX=0.4;entryY=0;entryDx=0;entryDy=0;entryPerimeter=0;" parent="1" target="SypogzJMCspnKlEwU4q5-3" edge="1">
          <mxGeometry width="50" height="50" relative="1" as="geometry">
            <mxPoint x="160" y="20" as="sourcePoint" />
            <mxPoint x="160" y="160" as="targetPoint" />
          </mxGeometry>
        </mxCell>
        <mxCell id="WIR_NCdY2v-yMR42KCiM-14" value="Таблица&lt;div&gt;Виженера&lt;/div&gt;" style="text;html=1;align=center;verticalAlign=middle;resizable=0;points=[];autosize=1;strokeColor=none;fillColor=none;" parent="1" vertex="1">
          <mxGeometry x="230" y="20" width="80" height="40" as="geometry" />
        </mxCell>
        <mxCell id="WIR_NCdY2v-yMR42KCiM-15" value="Знания о&amp;nbsp;&lt;div&gt;шифре Виженера&lt;/div&gt;" style="text;html=1;align=center;verticalAlign=middle;resizable=0;points=[];autosize=1;strokeColor=none;fillColor=none;" parent="1" vertex="1">
          <mxGeometry x="350" y="20" width="120" height="40" as="geometry" />
        </mxCell>
        <mxCell id="WIR_NCdY2v-yMR42KCiM-16" value="" style="endArrow=classic;html=1;rounded=0;" parent="1" edge="1">
          <mxGeometry width="50" height="50" relative="1" as="geometry">
            <mxPoint x="130" y="830" as="sourcePoint" />
            <mxPoint x="130" y="330" as="targetPoint" />
          </mxGeometry>
        </mxCell>
        <mxCell id="WIR_NCdY2v-yMR42KCiM-17" value="" style="edgeStyle=segmentEdgeStyle;endArrow=classic;html=1;curved=0;rounded=0;endSize=8;startSize=8;" parent="1" target="WIR_NCdY2v-yMR42KCiM-1" edge="1">
          <mxGeometry width="50" height="50" relative="1" as="geometry">
            <mxPoint x="130" y="580" as="sourcePoint" />
            <mxPoint x="180" y="530" as="targetPoint" />
            <Array as="points">
              <mxPoint x="370" y="580" />
            </Array>
          </mxGeometry>
        </mxCell>
        <mxCell id="WIR_NCdY2v-yMR42KCiM-18" value="Отправитель&lt;div&gt;(шифровальщик)&lt;/div&gt;" style="text;html=1;align=center;verticalAlign=middle;resizable=0;points=[];autosize=1;strokeColor=none;fillColor=none;" parent="1" vertex="1">
          <mxGeometry x="10" y="690" width="120" height="40" as="geometry" />
        </mxCell>
        <mxCell id="WIR_NCdY2v-yMR42KCiM-19" value="" style="endArrow=classic;html=1;rounded=0;" parent="1" edge="1">
          <mxGeometry width="50" height="50" relative="1" as="geometry">
            <mxPoint x="520" y="930" as="sourcePoint" />
            <mxPoint x="520" y="690" as="targetPoint" />
          </mxGeometry>
        </mxCell>
        <mxCell id="WIR_NCdY2v-yMR42KCiM-20" value="" style="edgeStyle=segmentEdgeStyle;endArrow=classic;html=1;curved=0;rounded=0;endSize=8;startSize=8;entryX=0.803;entryY=1.012;entryDx=0;entryDy=0;entryPerimeter=0;" parent="1" target="WIR_NCdY2v-yMR42KCiM-1" edge="1">
          <mxGeometry width="50" height="50" relative="1" as="geometry">
            <mxPoint x="520" y="830" as="sourcePoint" />
            <mxPoint x="490" y="780" as="targetPoint" />
            <Array as="points">
              <mxPoint x="410" y="830" />
              <mxPoint x="410" y="780" />
            </Array>
          </mxGeometry>
        </mxCell>
        <mxCell id="WIR_NCdY2v-yMR42KCiM-21" value="Получатель&lt;br&gt;(дешифровальщик)" style="text;html=1;align=center;verticalAlign=middle;resizable=0;points=[];autosize=1;strokeColor=none;fillColor=none;" parent="1" vertex="1">
          <mxGeometry x="390" y="850" width="130" height="40" as="geometry" />
        </mxCell>
        <mxCell id="WIR_NCdY2v-yMR42KCiM-23" value="" style="edgeStyle=segmentEdgeStyle;endArrow=classic;html=1;curved=0;rounded=0;endSize=8;startSize=8;exitX=1.012;exitY=0.345;exitDx=0;exitDy=0;exitPerimeter=0;" parent="1" edge="1">
          <mxGeometry width="50" height="50" relative="1" as="geometry">
            <mxPoint x="249.99999999999994" y="238.3" as="sourcePoint" />
            <mxPoint x="390" y="350" as="targetPoint" />
            <Array as="points">
              <mxPoint x="250" y="230" />
              <mxPoint x="390" y="230" />
              <mxPoint x="390" y="350" />
            </Array>
          </mxGeometry>
        </mxCell>
        <mxCell id="WIR_NCdY2v-yMR42KCiM-24" value="Зашифрованное&amp;nbsp;&lt;div&gt;слово/фраза&lt;/div&gt;" style="text;html=1;align=center;verticalAlign=middle;resizable=0;points=[];autosize=1;strokeColor=none;fillColor=none;" parent="1" vertex="1">
          <mxGeometry x="330" y="180" width="120" height="40" as="geometry" />
        </mxCell>
        <mxCell id="WIR_NCdY2v-yMR42KCiM-27" value="" style="edgeStyle=segmentEdgeStyle;endArrow=classic;html=1;curved=0;rounded=0;endSize=8;startSize=8;entryX=0;entryY=0.313;entryDx=0;entryDy=0;entryPerimeter=0;" parent="1" source="SypogzJMCspnKlEwU4q5-2" edge="1">
          <mxGeometry width="50" height="50" relative="1" as="geometry">
            <mxPoint x="31.600000000000136" y="319.99999999999994" as="sourcePoint" />
            <mxPoint x="470" y="609.2800000000002" as="targetPoint" />
            <Array as="points">
              <mxPoint x="30" y="609" />
            </Array>
          </mxGeometry>
        </mxCell>
        <mxCell id="WIR_NCdY2v-yMR42KCiM-28" value="" style="endArrow=classic;html=1;rounded=0;" parent="1" edge="1">
          <mxGeometry width="50" height="50" relative="1" as="geometry">
            <mxPoint x="610" y="600" as="sourcePoint" />
            <mxPoint x="790" y="600" as="targetPoint" />
          </mxGeometry>
        </mxCell>
        <mxCell id="WIR_NCdY2v-yMR42KCiM-29" value="Успешно расшифрованное&lt;div&gt;слово/фраза&lt;/div&gt;" style="text;html=1;align=center;verticalAlign=middle;resizable=0;points=[];autosize=1;strokeColor=none;fillColor=none;" parent="1" vertex="1">
          <mxGeometry x="610" y="550" width="170" height="40" as="geometry" />
        </mxCell>
        <mxCell id="C3CXjXtCVP0H-ov4vAsB-1" value="" style="edgeStyle=segmentEdgeStyle;endArrow=classic;html=1;curved=0;rounded=0;endSize=8;startSize=8;entryX=0.395;entryY=-0.021;entryDx=0;entryDy=0;entryPerimeter=0;" parent="1" edge="1">
          <mxGeometry width="50" height="50" relative="1" as="geometry">
            <mxPoint x="390.02" y="240" as="sourcePoint" />
            <mxPoint x="525.3199999999999" y="526.64" as="targetPoint" />
            <Array as="points">
              <mxPoint x="390.02" y="230" />
              <mxPoint x="525.02" y="230" />
            </Array>
          </mxGeometry>
        </mxCell>
        <mxCell id="C3CXjXtCVP0H-ov4vAsB-3" value="" style="edgeStyle=segmentEdgeStyle;endArrow=classic;html=1;curved=0;rounded=0;endSize=8;startSize=8;entryX=0.009;entryY=0.705;entryDx=0;entryDy=0;entryPerimeter=0;" parent="1" target="WIR_NCdY2v-yMR42KCiM-1" edge="1">
          <mxGeometry width="50" height="50" relative="1" as="geometry">
            <mxPoint x="53" y="290" as="sourcePoint" />
            <mxPoint x="110" y="410" as="targetPoint" />
            <Array as="points">
              <mxPoint x="53" y="460" />
              <mxPoint x="140" y="460" />
            </Array>
          </mxGeometry>
        </mxCell>
        <mxCell id="C3CXjXtCVP0H-ov4vAsB-5" value="" style="edgeStyle=segmentEdgeStyle;endArrow=classic;html=1;curved=0;rounded=0;endSize=8;startSize=8;entryX=0.714;entryY=0;entryDx=0;entryDy=0;entryPerimeter=0;" parent="1" target="WIR_NCdY2v-yMR42KCiM-4" edge="1">
          <mxGeometry width="50" height="50" relative="1" as="geometry">
            <mxPoint x="160" y="60" as="sourcePoint" />
            <mxPoint x="570" y="520" as="targetPoint" />
            <Array as="points">
              <mxPoint x="570" y="60" />
            </Array>
          </mxGeometry>
        </mxCell>
      </root>
    </mxGraphModel>
  </diagram>
</mxfile>
